<svg viewBox="0 0 24 24" xmlns="http://www.w3.org/2000/svg"><path fill-rule="evenodd" d="M12 .723l.195.053 9.75 2.621.555.15V9c0 7.114-4.75 12.262-10.294 13.846l-.206.059-.206-.059C6.251 21.262 1.5 16.114 1.5 9V3.547l.555-.15 9.75-2.621L12 .723zM3 4.697V9c0 6.298 4.132 10.86 9 12.343C16.868 19.86 21 15.298 21 9V4.697l-9-2.42-9 2.42zM11 15h2v2h-2v-2zm-.76-5.377c.1-.605.342-.998.625-1.24C11.15 8.138 11.532 8 12 8c.507 0 .885.129 1.12.318.213.171.38.447.38.932 0 .34-.09.545-.207.706-.139.19-.333.347-.628.577l-.028.021c-.264.205-.617.48-.891.855-.305.418-.496.932-.496 1.591v.5h1.5V13c0-.34.09-.545.207-.706.139-.19.333-.347.628-.577l.028-.021c.264-.205.617-.48.891-.855.305-.418.496-.932.496-1.591 0-.89-.336-1.614-.938-2.1-.58-.466-1.326-.65-2.062-.65-.775 0-1.517.236-2.11.743s-.98 1.24-1.13 2.134l1.48.246z"/></svg>