<svg width="32" height="32" viewBox="0 0 32 32" xmlns="http://www.w3.org/2000/svg">
    <path fill-rule="evenodd" d="M25.5 23a2.5 2.5 0 100 5 2.5 2.5 0 000-5zm-1-13v11.111a4.502 4.502 0 001 8.889 4.5 4.5 0 001-8.889V10a5 5 0 00-5-5h-4.086l2.793-2.793L18.793.793l-4.5 4.5-.707.707.707.707 4.5 4.5 1.414-1.414L17.414 7H21.5a3 3 0 013 3zm-17 .889V22a3 3 0 003 3h4.085l-2.792-2.793 1.414-1.414 4.5 4.5.707.707-.707.707-4.5 4.5-1.414-1.414L14.586 27H10.5a5 5 0 01-5-5V10.889A4.502 4.502 0 016.5 2a4.5 4.5 0 011 8.889zM6.5 9a2.5 2.5 0 100-5 2.5 2.5 0 000 5z"/>
</svg>
