<svg width="32" height="32" viewBox="0 0 32 32" xmlns="http://www.w3.org/2000/svg">
    <path fill-rule="evenodd" d="M6.759 8.173L1.793 3.207l1.414-1.414 27 27-1.414 1.414L23.586 25H21a5 5 0 01-10 0H5a2 2 0 01-2-2v-2.586A2 2 0 013.586 19L6 16.586V12c0-1.356.27-2.648.759-3.827zm1.565 1.566A8.002 8.002 0 008 12v4.586A2 2 0 017.415 18L5 20.414V23h16.586L8.324 9.739zm1.155-5.32A9.965 9.965 0 0115.999 2c5.524 0 10 4.477 10 10v4.586L28.415 19A2 2 0 0129 20.414V22h-2v-1.586L24.585 18A2 2 0 0124 16.586V12a8 8 0 00-13.217-6.066L9.48 4.42zM13 25a3 3 0 006 0h-6z"/>
</svg>
