<svg width="32" height="32" viewBox="0 0 32 32" xmlns="http://www.w3.org/2000/svg">
    <path fill-rule="evenodd" d="M14.871 1.379c.452-.951 1.806-.951 2.258 0l3.983 8.376 9.168 1.213c1.041.138 1.459 1.42.698 2.145l-6.71 6.393 1.685 9.13c.19 1.035-.903 1.828-1.827 1.325L16 25.534l-8.125 4.427c-.924.503-2.018-.29-1.827-1.325l1.684-9.13-6.71-6.393c-.76-.725-.343-2.007.698-2.144l9.169-1.213 3.982-8.377zm1.13 2.283l-3.48 7.32a1.25 1.25 0 01-.966.703l-8.019 1.06 5.87 5.593c.305.29.443.716.366 1.131L8.3 27.453l7.102-3.87a1.25 1.25 0 011.196 0l7.103 3.87-1.473-7.983a1.25 1.25 0 01.367-1.131l5.87-5.592-8.02-1.061a1.25 1.25 0 01-.965-.703L16 3.662z"/>
</svg>
