<svg width="32" height="32" viewBox="0 0 32 32" xmlns="http://www.w3.org/2000/svg">
    <path fill-rule="evenodd" d="M26.914 6l-.707.707-5 5-1.415-1.414L23.086 7H15.5C9.7 7 5 11.701 5 17.5S9.7 28 15.5 28C21.299 28 26 23.299 26 17.5c0-1.349-.254-2.636-.716-3.818l1.863-.728c.551 1.41.853 2.944.853 4.546C28 24.404 22.403 30 15.5 30 8.596 30 3 24.404 3 17.5 3 10.597 8.596 5 15.5 5h7.585l-3.293-3.293L21.207.293l5 5 .707.707zM15 23H9v-2h2v-5H9v-2h2v-1h2v8h2v2zm2-10h-1v4.5a1.5 1.5 0 001.5 1.5H20v2h-4v2h4.5a1.5 1.5 0 001.5-1.5v-3a1.5 1.5 0 00-1.5-1.5H18v-2h4v-2h-5z"/>
</svg>
