<svg viewBox="0 0 24 24" xmlns="http://www.w3.org/2000/svg"><path fill-rule="evenodd" d="M12 2.5a9.5 9.5 0 100 19 9.5 9.5 0 000-19zM1 12C1 5.925 5.925 1 12 1s11 4.925 11 11-4.925 11-11 11S1 18.075 1 12zM10.865 8.882c-.283.243-.524.636-.625 1.241l-1.48-.246c.15-.895.537-1.627 1.13-2.134C10.483 7.236 11.225 7 12 7c.889 0 1.655.252 2.204.772.551.523.796 1.235.796 1.978 0 .66-.191 1.173-.496 1.59-.274.376-.627.65-.891.856l-.027.021c-.296.23-.49.387-.629.577-.117.16-.207.365-.207.706v.5h-1.5v-.5c0-.66.191-1.173.496-1.59.274-.376.627-.65.891-.856l.027-.021c.296-.23.49-.387.629-.577.117-.16.207-.365.207-.706 0-.413-.13-.7-.329-.889C12.97 8.67 12.611 8.5 12 8.5c-.468 0-.85.14-1.135.382zM11 17.5v-2h2v2h-2z"/></svg>