<svg viewBox="0 0 24 24" xmlns="http://www.w3.org/2000/svg"><path fill-rule="evenodd" d="M7.547 1.25h8.906l6.297 6.297v8.906l-6.297 6.297H7.547L1.25 16.453V7.547L7.547 1.25zm.622 1.5L2.75 8.169v7.662l5.419 5.419h7.662l5.419-5.418V8.168L15.832 2.75H8.168zM10.865 8.882c-.283.243-.524.636-.625 1.241l-1.48-.246c.15-.895.537-1.627 1.13-2.134C10.483 7.236 11.225 7 12 7c.889 0 1.655.252 2.204.772.551.523.796 1.235.796 1.978 0 .66-.191 1.173-.496 1.59-.274.376-.627.65-.891.856l-.027.021c-.296.23-.49.387-.629.577-.117.16-.207.365-.207.706v.5h-1.5v-.5c0-.66.191-1.173.496-1.59.274-.376.627-.65.891-.856l.027-.021c.296-.23.49-.387.629-.577.117-.16.207-.365.207-.706 0-.413-.13-.7-.329-.889C12.97 8.67 12.611 8.5 12 8.5c-.468 0-.85.14-1.135.382zM11 17.5v-2h2v2h-2z"/></svg>