<svg viewBox="0 0 24 24" xmlns="http://www.w3.org/2000/svg"><path d="M12.5 18H7v6l2.75-2 2.75 2v-6z"/><path fill-rule="evenodd" d="M6.5 0c-.863 0-1.75.215-2.431.81C3.37 1.423 3 2.337 3 3.5v1h1.5v-1c0-.836.255-1.297.556-1.56.32-.28.807-.44 1.444-.44h1V0h-1zm2.75 1.5h5.5V0h-5.5v1.5zm7.25 0h3v3H21V0h-4.5v1.5zM3 6.25V11h1.5V6.25H3zm16.5 0V11H21V6.25h-1.5zM14.75 15h-5.5v1.5h5.5V15z"/><path d="M3 12.75v5.75c0 1.043.283 1.856.802 2.443.513.58 1.184.858 1.808.977l.28-1.474c-.406-.077-.735-.237-.964-.496-.223-.253-.426-.683-.426-1.45 0-.942.303-1.387.612-1.623.346-.265.843-.377 1.388-.377h1V15h-1c-.61 0-1.348.103-2 .485V12.75H3zM19.5 12.75V15h-3v1.5h3v4H14V22h7v-9.25h-1.5z"/></svg>