<svg viewBox="0 0 24 24" xmlns="http://www.w3.org/2000/svg"><path fill-rule="evenodd" d="M10.865 8.382c-.283.243-.524.636-.625 1.241l-1.48-.246c.15-.895.537-1.627 1.13-2.134.593-.507 1.335-.743 2.11-.743.889 0 1.655.252 2.204.772.551.523.796 1.235.796 1.978 0 .66-.191 1.173-.496 1.59-.274.376-.627.65-.891.856l-.027.021c-.296.23-.49.387-.629.577-.117.16-.207.365-.207.706v.5h-1.5V13c0-.66.191-1.173.496-1.59.274-.376.627-.65.891-.856l.027-.021c.296-.23.49-.387.629-.577.117-.16.207-.365.207-.706 0-.413-.13-.7-.329-.889C12.97 8.17 12.611 8 12 8c-.468 0-.85.14-1.135.382zM11 17v-2h2v2h-2zM12 .462l10 3.243V9c0 3.619-.842 6.534-2.518 8.846-1.673 2.31-4.125 3.946-7.219 5.106l-.263.099-.263-.099c-3.094-1.16-5.546-2.797-7.22-5.106C2.843 15.534 2 12.62 2 9V3.705L12 .462zM3.5 4.795V9c0 3.381.783 5.966 2.232 7.966 1.408 1.943 3.493 3.4 6.268 4.481 2.775-1.08 4.86-2.538 6.268-4.48 1.449-2 2.232-4.586 2.232-7.967V4.795L12 2.038 3.5 4.795z"/></svg>