<svg viewBox="0 0 24 24" xmlns="http://www.w3.org/2000/svg"><path d="M12 .462l10 3.243V9c0 3.619-.842 6.534-2.518 8.846-1.673 2.31-4.125 3.946-7.219 5.106l-.263.099-.263-.099c-3.094-1.16-5.546-2.797-7.22-5.106C2.843 15.534 2 12.62 2 9V3.705L12 .462zM3.5 4.795V9c0 3.381.783 5.966 2.232 7.966 1.408 1.943 3.493 3.4 6.268 4.481 2.775-1.08 4.86-2.538 6.268-4.48 1.449-2 2.232-4.586 2.232-7.967V4.795L12 2.038 3.5 4.795zM11 15h2v2h-2v-2zM10.88 8.386c-.293.247-.54.641-.64 1.237l-1.48-.246c.15-.904.556-1.635 1.152-2.138A3.21 3.21 0 0112 6.5c.732 0 1.48.178 2.06.643.605.485.94 1.212.94 2.107 0 .659-.191 1.173-.496 1.59-.274.374-.627.649-.89.854l-.028.022c-.296.23-.49.387-.628.577-.118.161-.208.366-.208.707v.5h-1.5V13c0-.66.191-1.173.496-1.59.274-.377.627-.651.891-.857l.027-.02c.296-.231.49-.388.629-.578.117-.161.207-.365.207-.705 0-.495-.169-.769-.378-.936C12.888 8.127 12.511 8 12 8c-.439 0-.825.136-1.12.386z"/></svg>