<svg viewBox="0 0 24 24" xmlns="http://www.w3.org/2000/svg"><path d="M2 2h20v20H2V2zm1.5 1.5v17h17v-17h-17zM11 15.5h2v2h-2v-2zM10.88 8.886c-.293.247-.54.641-.64 1.237l-1.48-.246c.15-.904.556-1.635 1.152-2.138A3.216 3.216 0 0112 7c.732 0 1.48.178 2.06.643.605.485.94 1.212.94 2.107 0 .659-.191 1.173-.496 1.59-.274.374-.627.649-.89.854l-.028.022c-.296.23-.49.387-.628.577-.118.161-.208.366-.208.707v.5h-1.5v-.5c0-.66.191-1.173.496-1.59.274-.377.627-.651.891-.857l.027-.02c.296-.231.49-.388.629-.578.117-.161.207-.365.207-.705 0-.495-.169-.769-.378-.936-.234-.187-.611-.314-1.122-.314-.439 0-.825.136-1.12.386z"/></svg>