<svg width="32" height="32" viewBox="0 0 32 32" xmlns="http://www.w3.org/2000/svg">
    <path fill-rule="evenodd" d="M24.773 25.188l5.02 5.02 1.414-1.415-27-27-1.414 1.414L4.336 4.75 1.293 7.793l1.414 1.414L5.75 6.164l2.063 2.063A11.967 11.967 0 004 17c0 6.627 5.373 12 12 12 3.463 0 6.583-1.467 8.773-3.813zm-1.415-1.416L9.228 9.642A9.973 9.973 0 006 17c0 5.523 4.477 10 10 10 2.91 0 5.53-1.243 7.358-3.228zM28 17c0 1.791-.392 3.491-1.096 5.018l-1.53-1.53A9.98 9.98 0 0026 17c0-5.523-4.477-10-10-10a9.98 9.98 0 00-3.489.625l-1.529-1.529A11.956 11.956 0 0116 5c6.628 0 12 5.373 12 12zM24.707 1.793l6 6-1.414 1.414-6-6 1.415-1.414z"/>
</svg>
