<svg viewBox="0 0 24 24" xmlns="http://www.w3.org/2000/svg"><path fill-rule="evenodd" d="M12 1a7.474 7.474 0 00-4.891 1.814l.979 1.137A6 6 0 0118 8.5V13.059l.22.22 2.03 2.03v1.19h1.5v-1.81l-.22-.22-2.03-2.03V8.5A7.5 7.5 0 0012 1zm9.47 21.53l-3.781-3.78h-1.94a3.75 3.75 0 01-7.5 0h-6v-4.06l.22-.22 2.03-2.03V8.5c0-.88.152-1.725.43-2.51L1.47 2.53l1.06-1.06 20 20-1.06 1.06zM6.14 7.202L16.19 17.25H3.749v-1.94l2.031-2.03.22-.22V8.5c0-.446.048-.88.14-1.298zM12 21a2.25 2.25 0 01-2.25-2.25h4.5A2.25 2.25 0 0112 21z"/></svg>