<svg viewBox="0 0 32 32" xmlns="http://www.w3.org/2000/svg"><path fill-rule="evenodd" d="M28.793 30.207L23.586 25H21a5 5 0 01-10 0H3v-5.414l.293-.293L6 16.586V12c0-1.356.27-2.648.759-3.827L1.793 3.207l1.414-1.414 27 27-1.414 1.414zM8.324 9.738L21.586 23H5v-2.586l2.707-2.707.293-.293V12c0-.786.113-1.544.324-2.262zM16 28a3 3 0 01-3-3h6a3 3 0 01-3 3zm0-26c-2.491 0-4.771.912-6.522 2.419l1.305 1.515A8 8 0 0124 12v5.414l.294.293L27 20.414V22h2v-2.414l-.293-.293L26 16.586V12c0-5.523-4.477-10-10-10z"/></svg>