<svg viewBox="0 0 24 24" xmlns="http://www.w3.org/2000/svg"><path fill-rule="evenodd" d="M21.47 22.53l-3.781-3.78h-1.94a3.75 3.75 0 11-7.5 0h-6v-4.06l.22-.22 2.03-2.03V9c0-1.017.203-1.986.57-2.87l-3.6-3.6 1.06-1.06 20 20-1.06 1.06zM6.242 7.304l9.946 9.946H3.749v-1.94l2.031-2.03.22-.22V9c0-.589.085-1.158.243-1.696zM12 21a2.25 2.25 0 01-2.25-2.25h4.5A2.25 2.25 0 0112 21zm0-19.5a7.474 7.474 0 00-4.891 1.814l.979 1.137A6 6 0 0118 9v4.059l.22.22 2.03 2.03v1.19h1.5v-1.81l-.22-.22-2.03-2.03V9A7.5 7.5 0 0012 1.5z"/></svg>