<svg width="32" height="32" viewBox="0 0 32 32" xmlns="http://www.w3.org/2000/svg">
    <path fill-rule="evenodd" d="M28.793 30.207L23.586 25H21a5 5 0 01-10 0H5a2 2 0 01-2-2v-2.586A2 2 0 013.586 19L6 16.586V12c0-1.356.27-2.648.759-3.827L1.793 3.207l1.414-1.414 27 27-1.414 1.414zM8.324 9.738L21.586 23H5v-2.586L7.414 18A2 2 0 008 16.586V12c0-.786.113-1.544.324-2.262zM16 28a3 3 0 01-3-3h6a3 3 0 01-3 3zm0-26c-2.491 0-4.771.912-6.522 2.419l1.305 1.515A8 8 0 0124 12v4.586A2 2 0 0024.586 18L27 20.414V22h2v-1.586A2 2 0 0028.414 19L26 16.586V12c0-5.523-4.477-10-10-10z"/>
</svg>
