<svg viewBox="0 0 24 24" xmlns="http://www.w3.org/2000/svg"><path fill-rule="evenodd" d="M.75 3H0v16.5h7.5c1.05 0 1.84.176 2.435.523.577.337 1.038.875 1.363 1.74l.702-.127.702.127c.325-.865.786-1.403 1.363-1.74.595-.347 1.385-.523 2.435-.523H24V3h-8.25c-1.565 0-2.944.8-3.75 2.013A4.497 4.497 0 008.25 3H.75zm10.5 4.5c0-1.656-1.344-3-3-3H1.5V18h6c1.2 0 2.285.199 3.19.727.199.116.385.245.56.389V7.5zm1.5 11.616c.175-.143.361-.273.56-.389C14.215 18.2 15.3 18 16.5 18h6V4.5h-6.75c-1.656 0-3 1.344-3 3v11.616z"/></svg>