<svg viewBox="0 0 24 24" xmlns="http://www.w3.org/2000/svg"><g clip-path="url(#clip0)"><path fill-rule="evenodd" d="M.75 3H0v16.5h7.5c1.261 0 2.101.286 2.665.678.562.39.914.931 1.124 1.56l.711-.116.711.115c.21-.628.562-1.168 1.123-1.559.565-.392 1.405-.678 2.666-.678H24V3h-8c-1.148 0-2.334.358-3.244 1.154a4.206 4.206 0 00-.756.871 4.206 4.206 0 00-.756-.87C10.334 3.357 9.148 3 8 3H.75zm10.5 4.75c0-1.177-.42-1.965-.994-2.467C9.666 4.767 8.852 4.5 8 4.5H1.5V18h6c1.489 0 2.649.34 3.522.947.079.055.155.111.228.17V7.75zm1.5 11.367c.073-.059.15-.115.228-.17.873-.608 2.033-.947 3.522-.947h6V4.5H16c-.852 0-1.666.267-2.256.783-.574.502-.994 1.29-.994 2.467v11.367z"/></g><defs><clipPath id="clip0"><path d="M0 0h24v24H0V0z"/></clipPath></defs></svg>