<svg width="32" height="32" viewBox="0 0 32 32" fill="none" xmlns="http://www.w3.org/2000/svg">
<path fill-rule="evenodd" clip-rule="evenodd" d="M9.00024 2C6.23882 2 4.00024 4.23858 4.00024 7V25C4.00024 27.7614 6.23882 30 9.00024 30H24.0002C25.1048 30 26.0002 29.1046 26.0002 28V4C26.0002 2.89543 25.1048 2 24.0002 2H9.00024ZM6.00024 20.9996V7C6.00024 5.34315 7.34339 4 9.00024 4H24.0002V20H9.00024C7.87464 20 6.83591 20.3719 6.00024 20.9996ZM24.0002 22H9.00024C7.34339 22 6.00024 23.3431 6.00024 25C6.00024 26.6569 7.34339 28 9.00024 28H24.0002V22Z" fill="black"/>
</svg>
