<svg width="32" height="32" viewBox="0 0 32 32" fill="none" xmlns="http://www.w3.org/2000/svg">
<path fill-rule="evenodd" clip-rule="evenodd" d="M4 16C4 9.37258 9.37258 4 16 4C22.6274 4 28 9.37258 28 16C28 22.6274 22.6274 28 16 28C9.37258 28 4 22.6274 4 16ZM16 2C8.26801 2 2 8.26801 2 16C2 23.732 8.26801 30 16 30C23.732 30 30 23.732 30 16C30 8.26801 23.732 2 16 2ZM14.6667 7.99999V16.4151C14.6667 17.1377 15.0564 17.8041 15.6861 18.1583L20.5097 20.8716L21.4902 19.1284L16.6667 16.4151V7.99999H14.6667Z" fill="black"/>
</svg>
