<svg width="32" height="32" viewBox="0 0 32 32" xmlns="http://www.w3.org/2000/svg"><path fill-rule="evenodd" clip-rule="evenodd" d="M3 2C1.89543 2 1 2.89543 1 4V18C1 19.1046 1.89543 20 3 20H6V21.9191C6 23.7009 8.15428 24.5933 9.41421 23.3333L12.7475 20H23C24.1046 20 25 19.1046 25 18V4C25 2.89543 24.1046 2 23 2H3ZM3 4H23V18H12.7475C12.2171 18 11.7084 18.2107 11.3333 18.5858L8 21.9191L8 19V18H7H3V4ZM31 24V8H29V24H26H25V25L25 27.9191L21.6667 24.5858C21.2916 24.2107 20.7829 24 20.2525 24H13V26H20.2525L23.5858 29.3333C24.8457 30.5932 27 29.7009 27 27.9191V26H29C30.1046 26 31 25.1046 31 24Z"/></svg>