<svg viewBox="0 0 32 32" xmlns="http://www.w3.org/2000/svg"><path fill-rule="evenodd" d="M23.613 25.028l5.18 5.18 1.414-1.415-27-27-1.414 1.414 4.894 4.895c-.6.458-1.147.944-1.644 1.44-2.375 2.376-3.616 5.016-3.992 6.142L.946 16l.105.316c.376 1.126 1.617 3.766 3.992 6.141C7.439 24.853 11.015 27 16 27c3.047 0 5.567-.802 7.613-1.972zm-1.474-1.474l-2.662-2.663a6 6 0 01-8.367-8.367L8.115 9.53c-.61.448-1.162.93-1.659 1.427-1.906 1.906-2.98 4-3.392 5.043.412 1.043 1.486 3.137 3.392 5.043C8.561 23.147 11.652 25 16 25c2.42 0 4.451-.574 6.14-1.446zm-9.585-9.586a4 4 0 005.478 5.478l-5.478-5.478zm2.42-3.88l2.042 2.042a4.007 4.007 0 012.854 2.854l2.043 2.043a6 6 0 00-6.94-6.94zM28.934 16c-.397 1.007-1.414 2.996-3.2 4.848l1.414 1.415c2.25-2.323 3.435-4.852 3.8-5.947l.105-.316-.105-.316c-.375-1.126-1.617-3.766-3.992-6.141C24.561 7.146 20.985 5 16 5c-1.958 0-3.698.331-5.236.879l1.595 1.594C13.461 7.173 14.672 7 16 7c4.349 0 7.44 1.853 9.543 3.957 1.906 1.906 2.98 4 3.392 5.043z"/></svg>