<svg viewBox="0 0 24 24" xmlns="http://www.w3.org/2000/svg"><path fill-rule="evenodd" d="M17.71 18.77l3.76 3.76 1.06-1.06-20-20-1.06 1.06 3.546 3.546c-.45.344-.861.709-1.234 1.081C2.002 8.938 1.07 10.92.79 11.763L.709 12l.08.237c.28.844 1.212 2.825 2.993 4.606C5.58 18.64 8.262 20.25 12 20.25c2.285 0 4.175-.601 5.71-1.48zm-2.745-2.744l-1.441-1.441a3 3 0 01-4.109-4.109L7.974 9.035a5 5 0 006.992 6.992zM12 3.75c-1.469 0-2.774.248-3.927.659l2.734 2.734a5 5 0 016.05 6.05l3.504 3.504c1.688-1.742 2.577-3.639 2.85-4.46l.08-.237-.08-.237c-.28-.844-1.212-2.825-2.993-4.606C18.42 5.36 15.738 3.75 12 3.75z"/></svg>