<svg viewBox="0 0 24 24" xmlns="http://www.w3.org/2000/svg"><path fill-rule="evenodd" d="M17.71 18.77l3.76 3.76 1.06-1.06-20-20-1.06 1.06 3.546 3.546c-.45.344-.861.709-1.234 1.081C2.002 8.938 1.07 10.92.79 11.763L.709 12l.08.237c.28.844 1.212 2.825 2.993 4.606C5.58 18.64 8.262 20.25 12 20.25c2.285 0 4.175-.601 5.71-1.48zm-1.105-1.105l-1.998-1.997a4.5 4.5 0 01-6.275-6.276L6.087 7.149c-.458.335-.872.697-1.244 1.07-1.43 1.43-2.236 3-2.544 3.782.308.782 1.114 2.353 2.544 3.782C6.42 17.36 8.739 18.75 12 18.75c1.816 0 3.339-.43 4.605-1.085zm-7.19-7.189a3 3 0 004.109 4.109l-4.109-4.109zm1.815-2.91l1.532 1.532a3.005 3.005 0 012.14 2.14l1.532 1.532a4.5 4.5 0 00-5.204-5.204zM21.7 12c-.298.755-1.06 2.247-2.4 3.636l1.06 1.061c1.688-1.742 2.577-3.639 2.85-4.46l.08-.237-.08-.237c-.28-.844-1.212-2.825-2.993-4.606C18.42 5.36 15.738 3.75 12 3.75c-1.469 0-2.774.248-3.927.659L9.27 5.605A10.337 10.337 0 0112 5.25c3.261 0 5.58 1.39 7.157 2.968 1.43 1.43 2.236 3 2.544 3.782z"/></svg>