<svg viewBox="0 0 24 24" xmlns="http://www.w3.org/2000/svg"><path fill-rule="evenodd" d="M4.843 15.782c-1.43-1.43-2.236-3-2.544-3.782.308-.782 1.114-2.353 2.544-3.782C6.42 6.64 8.739 5.25 12 5.25s5.58 1.39 7.157 2.968c1.43 1.43 2.236 3 2.544 3.782-.308.782-1.114 2.353-2.544 3.782C17.58 17.36 15.261 18.75 12 18.75s-5.58-1.39-7.157-2.968zM12 3.75c-3.739 0-6.42 1.61-8.218 3.407C2.002 8.938 1.07 10.92.79 11.763L.709 12l.08.237c.28.844 1.212 2.825 2.993 4.606C5.58 18.64 8.262 20.25 12 20.25c3.739 0 6.42-1.61 8.218-3.407 1.781-1.781 2.712-3.762 2.994-4.606L23.29 12l-.08-.237c-.28-.844-1.212-2.825-2.993-4.606C18.42 5.36 15.738 3.75 12 3.75zM15 12a3 3 0 11-6 0 3 3 0 016 0zm1.5 0a4.5 4.5 0 11-9 0 4.5 4.5 0 019 0z"/></svg>