<svg width="32" height="32" viewBox="0 0 32 32" xmlns="http://www.w3.org/2000/svg"><path fill-rule="evenodd" clip-rule="evenodd" d="M6 4C6 2.89543 6.89543 2 8 2H17.5858C18.1162 2 18.6249 2.21071 19 2.58579L25.4142 9C25.7893 9.37507 26 9.88378 26 10.4142V28C26 29.1046 25.1046 30 24 30H8C6.89543 30 6 29.1046 6 28V4ZM8 4H16V10C16 11.1046 16.8954 12 18 12H24V28H8V4ZM18 4.41421L23.5858 10H18V4.41421ZM15.7071 23.2071L21.7071 17.2071L20.2929 15.7929L15 21.0858L12.2071 18.2929L10.7929 19.7071L14.2929 23.2071L15 23.9142L15.7071 23.2071Z"/></svg>