<svg width="32" height="32" viewBox="0 0 32 32" xmlns="http://www.w3.org/2000/svg"><path fill-rule="evenodd" clip-rule="evenodd" d="M6 4C6 2.89543 6.89543 2 8 2H17.5858C18.1162 2 18.6249 2.21071 19 2.58579L25.4142 9C25.7893 9.37507 26 9.88378 26 10.4142V16H24V12H18C16.8954 12 16 11.1046 16 10V4H8V28H24V25H26V28C26 29.1046 25.1046 30 24 30H8C6.89543 30 6 29.1046 6 28V4ZM18 4.41421L23.5858 10H18V4.41421ZM15.4142 18.9998L18.7074 15.7066L17.2931 14.2924L12.2929 19.2926L11.5858 19.9997L12.2929 20.7069L17.2931 25.7071L18.7074 24.2929L15.4142 20.9998H30.0002V18.9998H15.4142Z"/></svg>