<svg viewBox="0 0 32 32" xmlns="http://www.w3.org/2000/svg"><path d="M5 5V4H4v1h1zm22 0h1V4h-1v1zm0 5l.707.707.293-.293V10h-1zm-8 8l-.707-.707-.293.293V18h1zm0 7l.504.864.496-.29V25h-1zm-6 3.5h-1l1.504.864L13 28.5zM13 18h1v-.414l-.293-.293L13 18zm-8-8H4v.414l.293.293L5 10zm0-4h22V4H5v2zm21-1v5h2V5h-2zm.293 4.293l-8 8 1.414 1.414 8-8-1.414-1.414zM18 18v7h2v-7h-2zm.496 6.136l-6 3.5 1.008 1.728 6-3.5-1.008-1.728zM14 28.5V18h-2v10.5h2zm-.293-11.207l-8-8-1.414 1.414 8 8 1.414-1.414zM6 10V5H4v5h2z"/></svg>