<svg viewBox="0 0 32 32" xmlns="http://www.w3.org/2000/svg"><path d="M5.293 10.293L4.586 11l.707-.707zm7.414 7.414l-.707.707.707-.707zm.669 11.574l.504.864-.504-.864zm13.331-18.988L26 9.586l.707.707zM6 6h20V4H6v2zm20 0v3.586h2V6h-2zm0 3.586L18.586 17 20 18.414 27.414 11 26 9.586zm-8 8.828v7.012h2v-7.012h-2zm0 7.012l-5.128 2.99 1.008 1.729 5.128-2.992L18 25.426zm-4 3.639v-10.65h-2v10.65h2zM13.414 17L6 9.586 4.586 11 12 18.414 13.414 17zM6 9.586V6H4v3.586h2zm0 0H4A2 2 0 004.586 11L6 9.586zm8 8.828A2 2 0 0013.414 17L12 18.414h2zm-1.128 10.003a.75.75 0 011.128.648h-2a1.25 1.25 0 001.88 1.08l-1.008-1.728zM18 25.426l1.008 1.727A2 2 0 0020 25.426h-2zM18.586 17A2 2 0 0018 18.414h2L18.586 17zM26 9.586L27.414 11A2 2 0 0028 9.586h-2zM26 6h2a2 2 0 00-2-2v2zM6 4a2 2 0 00-2 2h2V4z"/></svg>