<svg width="32" height="32" viewBox="0 0 32 32" fill="none" xmlns="http://www.w3.org/2000/svg">
<path fill-rule="evenodd" clip-rule="evenodd" d="M4 6C4 4.89543 4.89543 4 6 4H26C27.1046 4 28 4.89543 28 6V9.58579C28 10.1162 27.7893 10.6249 27.4142 11L20 18.4142L20 25.4256C20 26.137 19.6222 26.7948 19.0077 27.1532L13.8798 30.1445C13.0465 30.6306 12 30.0295 12 29.0647V18.4142L4.58579 11C4.21071 10.6249 4 10.1162 4 9.58579V6ZM26 6H6V9.58579L13.4142 17C13.7893 17.3751 14 17.8838 14 18.4142V27.759L18 25.4256V18.4142C18 17.8838 18.2107 17.3751 18.5858 17L26 9.58579V6Z" fill="black"/>
</svg>
