<svg viewBox="0 0 24 24" xmlns="http://www.w3.org/2000/svg"><path fill-rule="evenodd" d="M7.5 4.5a4.5 4.5 0 00-3.216 7.648l.002.001L12 19.935l7.714-7.786.002-.001A4.5 4.5 0 0016.5 4.5c-.754 0-1.473.296-2.158.754-.687.46-1.288 1.047-1.812 1.57l-.53.531-.53-.53c-.524-.524-1.125-1.111-1.812-1.571C8.973 4.796 8.254 4.5 7.5 4.5zM1.5 9a6 6 0 016-6c1.156 0 2.165.454 2.992 1.007.57.381 1.077.826 1.508 1.237.431-.41.939-.856 1.508-1.237C14.335 3.454 15.345 3 16.5 3a6 6 0 014.286 10.2l-.003.002-8.25 8.326-.533.538-.533-.538-8.25-8.326-.003-.003A5.983 5.983 0 011.5 9z"/></svg>