<svg width="32" height="32" viewBox="0 0 32 32" xmlns="http://www.w3.org/2000/svg">
    <path fill-rule="evenodd" d="M10 6a6 6 0 00-4.288 10.197l.002.002L16 26.58 26.286 16.2l.002-.002A6 6 0 0022 6c-1.005 0-1.964.395-2.877 1.005-.916.613-1.718 1.396-2.416 2.095L16 9.807l-.707-.707c-.698-.699-1.5-1.482-2.416-2.095C11.964 6.395 11.005 6 10 6zm-8 6a8 8 0 018-8c1.541 0 2.886.605 3.989 1.343.76.508 1.436 1.101 2.011 1.649.575-.548 1.252-1.141 2.011-1.65C19.114 4.606 20.46 4 22 4a8 8 0 015.714 13.599l-.004.004-11 11.1-.71.718-.71-.717-11-11.101-.004-.004A7.977 7.977 0 012 12z"/>
</svg>
