<svg viewBox="0 0 24 24" xmlns="http://www.w3.org/2000/svg"><path fill-rule="evenodd" d="M2.47 4.47c2.363-2.364 6.296-2.364 8.66 0l.01.009.008.01L12 5.4l.851-.913.01-.01.008-.008c2.364-2.364 6.297-2.364 8.661 0 1.421 1.42 1.897 3.09 1.691 4.814-.2 1.684-1.043 3.382-2.173 4.964-2.262 3.167-5.846 6.104-8.645 7.885l-.403.256-.403-.256c-2.799-1.781-6.383-4.718-8.645-7.885-1.13-1.582-1.973-3.28-2.173-4.964-.206-1.724.27-3.393 1.69-4.814m7.592 1.052c-1.78-1.77-4.756-1.767-6.53.008-1.08 1.08-1.417 2.285-1.263 3.577.159 1.331.847 2.79 1.905 4.27 2.009 2.813 5.196 5.495 7.827 7.23 2.63-1.735 5.818-4.417 7.827-7.23 1.057-1.48 1.746-2.939 1.905-4.27.154-1.292-.183-2.498-1.262-3.577-1.776-1.775-4.752-1.778-6.531-.008l-1.39 1.49-.55.587-.548-.587-1.39-1.49z"/></svg>