<svg viewBox="0 0 32 32" xmlns="http://www.w3.org/2000/svg"><path fill-rule="evenodd" d="M8 12a8 8 0 1116 0c0 1.49-.285 2.557-.68 3.366-.397.813-.93 1.422-1.509 1.971-.224.213-.444.408-.67.608h-.001c-.073.065-.148.13-.223.198a10.92 10.92 0 00-.88.854C19.466 19.632 19 20.422 19 21.5v.5h2v-.5c0-.422.157-.757.526-1.169.194-.216.43-.436.72-.694l.2-.177c.232-.205.49-.432.743-.672.671-.638 1.388-1.436 1.928-2.545C25.66 15.131 26 13.76 26 12c0-5.523-4.477-10-10-10S6 6.477 6 12c0 1.76.34 3.13.882 4.243.541 1.109 1.258 1.907 1.93 2.545.252.24.51.468.742.672l.2.177c.29.258.526.478.72.694.369.412.526.747.526 1.169v.5h2v-.5c0-1.078-.468-1.868-1.036-2.503a10.92 10.92 0 00-.881-.854l-.223-.197c-.227-.201-.447-.396-.671-.609-.579-.55-1.112-1.158-1.509-1.97C8.285 14.556 8 13.49 8 12zm13 12v2H11v-2h10zm-2 4v2h-6v-2h6z"/></svg>