<svg viewBox="0 0 32 32" xmlns="http://www.w3.org/2000/svg"><path fill-rule="evenodd" d="M8 12a8 8 0 1116 0c0 1.49-.285 2.557-.681 3.377-.4.825-.937 1.452-1.526 2.04-.153.154-.321.314-.495.48-.446.426-.93.889-1.302 1.358-.57.723-.996 1.591-.996 2.745v2h-2v-8.586l3.707-3.707-1.414-1.414L16 13.586l-3.293-3.293-1.414 1.414L15 15.414V24h-2v-2c0-1.154-.426-2.022-.996-2.745-.371-.47-.856-.932-1.302-1.357a30.132 30.132 0 01-.495-.48c-.589-.589-1.126-1.216-1.526-2.041C8.285 14.557 8 13.49 8 12zm5 14v2h6v-2h-6zm3-24C10.477 2 6 6.477 6 12c0 1.76.34 3.13.881 4.248.538 1.112 1.25 1.923 1.912 2.584.237.237.451.441.648.629.392.373.712.678.993 1.034.367.464.566.909.566 1.505v6a2 2 0 002 2h6a2 2 0 002-2v-6c0-.596.2-1.04.566-1.505.28-.356.601-.661.993-1.034.197-.188.411-.392.648-.629.661-.661 1.374-1.472 1.912-2.584C25.659 15.13 26 13.76 26 12c0-5.523-4.477-10-10-10z"/></svg>