<svg width="32" height="32" viewBox="0 0 32 32" fill="none" xmlns="http://www.w3.org/2000/svg">
<path fill-rule="evenodd" clip-rule="evenodd" d="M20 4C20 2.89543 19.1046 2 18 2H6C4.89543 2 4 2.89543 4 4V28C4 29.1046 4.89543 30 6 30H18C19.1046 30 20 29.1046 20 28V25H18V28H6V4H18V7H20V4ZM24.5858 17.0003L20.7926 20.7935L22.2068 22.2077L27.7071 16.7074L28.4142 16.0003L27.7071 15.2932L22.2068 9.79298L20.7926 11.2072L24.5858 15.0003L9.99975 15.0003L9.99975 17.0003L24.5858 17.0003Z" fill="black"/>
</svg>
