<svg viewBox="0 0 24 24" xmlns="http://www.w3.org/2000/svg"><path fill-rule="evenodd" d="M2.938.938C3.584.293 4.484 0 5.5 0H20v9h-1.5V1.5h-13c-.734 0-1.209.207-1.5.5-.293.291-.5.766-.5 1.5v11.993c.542-.324 1.214-.493 2-.493h7v1.5h-7c-.836 0-1.297.255-1.56.556-.28.32-.44.807-.44 1.444 0 .637.16 1.124.44 1.444.263.301.724.556 1.56.556H16V22H5.5c-1.164 0-2.078-.37-2.69-1.069-.595-.68-.81-1.568-.81-2.431v-15c0-1.016.293-1.916.938-2.562zm16.845 10.285l-.53-.537-.533.534-4.25 4.25 1.06 1.06 2.97-2.97V24H20V13.576l2.916 2.951 1.067-1.054-4.2-4.25z"/></svg>