<svg viewBox="0 0 24 24" xmlns="http://www.w3.org/2000/svg"><path fill-rule="evenodd" d="M6.5 0C5.484 0 4.584.293 3.938.938 3.293 1.584 3 2.484 3 3.5v1h1.5v-1c0-.734.207-1.209.5-1.5.291-.293.766-.5 1.5-.5h1V0h-1zm8.25 0h-5.5v1.5h5.5V0zm5.5 0H16.5v1.5h3v3H21V0h-.75zM3 6.25V11h1.5V6.25H3zm16.5 0V11H21V6.25h-1.5zM3 12.75v5.75c0 .747.16 1.509.588 2.142.44.652 1.12 1.103 2.02 1.277l.284-1.473c-.54-.104-.86-.347-1.06-.643-.213-.314-.332-.755-.332-1.303 0-.637.16-1.124.44-1.444.263-.301.724-.556 1.56-.556h1V15h-1c-.786 0-1.458.169-2 .493V12.75H3zm16.5 3.75h-3V15h3v-2.25H21V22h-7v-1.5h5.5v-4zm-4.75 0h-5.5V15h5.5v1.5zM12.5 18H7v6l2.75-2 2.75 2v-6z"/></svg>