<svg viewBox="0 0 24 24" xmlns="http://www.w3.org/2000/svg"><path fill-rule="evenodd" d="M6.5 0C5.484 0 4.584.293 3.938.938 3.293 1.584 3 2.484 3 3.5V18h.025a4.884 4.884 0 00-.025.5c0 .747.16 1.509.588 2.142.44.652 1.12 1.103 2.02 1.277l.284-1.473c-.54-.104-.86-.347-1.06-.643-.213-.314-.332-.755-.332-1.303 0-.637.16-1.124.44-1.444.263-.301.724-.556 1.56-.556h13v4H14V22h7V0H6.5zm13 15V1.5h-13c-.734 0-1.209.207-1.5.5-.293.291-.5.766-.5 1.5v11.993c.542-.324 1.214-.493 2-.493h13zm-7 3H7v6l2.75-2 2.75 2v-6z"/></svg>