<svg viewBox="0 0 32 32" xmlns="http://www.w3.org/2000/svg"><path fill-rule="evenodd" d="M16 10a6 6 0 100 12 6 6 0 000-12zm-4 6a4 4 0 118 0 4 4 0 01-8 0zM13.575 2a2 2 0 00-1.96 1.603L11.1 6.15c-.408.203-.8.43-1.178.68l-2.459-.824a2 2 0 00-2.368.897l-2.425 4.203a2 2 0 00.408 2.498l1.944 1.717a11.157 11.157 0 000 1.358l-1.944 1.717a2 2 0 00-.408 2.498l2.425 4.203a2 2 0 002.368.897l2.46-.825c.376.25.77.478 1.177.681l.516 2.547A2 2 0 0013.575 30h4.85a2 2 0 001.96-1.603l.516-2.547c.408-.203.8-.43 1.178-.68l2.459.824a2 2 0 002.368-.897l2.425-4.203a2 2 0 00-.408-2.498l-1.944-1.717a11.16 11.16 0 000-1.358l1.944-1.717a2 2 0 00.408-2.498l-2.425-4.203a2 2 0 00-2.368-.897l-2.46.825a11 11 0 00-1.177-.681l-.516-2.547A2 2 0 0018.425 2h-4.85zm0 2h4.85l.719 3.548.474.209c.608.267 1.18.599 1.709.988l.418.307 3.429-1.15 2.425 4.203-2.709 2.393.056.514a9.09 9.09 0 010 1.976l-.056.515 2.709 2.392-2.425 4.203-3.43-1.15-.417.307a8.994 8.994 0 01-1.709.988l-.474.209-.72 3.548h-4.849l-.719-3.548-.474-.209a8.982 8.982 0 01-1.709-.988l-.418-.307-3.429 1.15-2.425-4.203 2.709-2.393-.057-.514a9.112 9.112 0 010-1.976l.057-.514L4.4 12.105l2.425-4.203 3.43 1.15.417-.307a8.987 8.987 0 011.709-.988l.474-.209.72-3.548z"/></svg>