<svg viewBox="0 0 32 32" xmlns="http://www.w3.org/2000/svg"><path fill-rule="evenodd" d="M12.758 2h-.818l-.162.801-.679 3.349c-.408.203-.8.43-1.178.68L6.687 5.747l-.776-.26-.408.708-3.242 5.62-.409.708.613.541 2.556 2.258a11.157 11.157 0 000 1.358l-2.556 2.258-.613.541.409.708 3.242 5.62.408.708.776-.26L9.92 25.17c.377.25.77.478 1.178.681l.678 3.349.163.801h8.12l.163-.801.678-3.349c.408-.203.8-.43 1.178-.68l3.234 1.084.776.26.408-.708 3.242-5.62.409-.708-.613-.541-2.556-2.258a11.16 11.16 0 000-1.358l2.556-2.258.613-.541-.409-.708-3.242-5.62-.409-.708-.775.26-3.234 1.085A11 11 0 0020.9 6.15L20.223 2.8 20.06 2h-7.302zm.201 5.04L13.575 4h4.85l.616 3.04.103.508.474.209c.608.267 1.18.599 1.709.988l.418.307.492-.165 2.937-.985 2.425 4.203-2.32 2.05-.389.343.056.514a9.09 9.09 0 010 1.976l-.056.515.389.342 2.32 2.05-2.425 4.203-2.937-.985-.492-.165-.418.307a8.994 8.994 0 01-1.709.988l-.474.209-.103.508-.616 3.04h-4.85l-.616-3.04-.103-.508-.474-.209a8.982 8.982 0 01-1.709-.988l-.418-.307-.492.165-2.937.985-2.425-4.203 2.32-2.05.389-.343-.057-.514a9.112 9.112 0 010-1.976l.057-.514-.389-.343-2.32-2.05 2.425-4.203 2.937.985.492.165.418-.307a8.987 8.987 0 011.709-.988l.474-.209.103-.508zM12 16a4 4 0 118 0 4 4 0 01-8 0zm4-6a6 6 0 100 12 6 6 0 000-12z"/></svg>