<svg width="32" height="32" viewBox="0 0 32 32" xmlns="http://www.w3.org/2000/svg"><path fill-rule="evenodd" clip-rule="evenodd" d="M18 7C18 5.34315 19.3431 4 21 4C22.6569 4 24 5.34315 24 7C24 8.65685 22.6569 10 21 10C19.3431 10 18 8.65685 18 7ZM21 2C18.2386 2 16 4.23858 16 7C16 7.54345 16.0867 8.06665 16.247 8.55652L10.0535 12.0404C9.20889 11.3881 8.14977 11 7 11C4.23858 11 2 13.2386 2 16C2 18.7614 4.23858 21 7 21C8.15007 21 9.20944 20.6117 10.0542 19.9591L16.2473 23.4427C16.0868 23.9328 16 24.4563 16 25C16 27.7614 18.2386 30 21 30C23.7614 30 26 27.7614 26 25C26 22.2386 23.7614 20 21 20C19.5004 20 18.1551 20.6601 17.2386 21.7057L11.3814 18.4109C11.7757 17.696 12 16.8742 12 16C12 15.1255 11.7755 14.3035 11.381 13.5884L17.2381 10.2937C18.1545 11.3396 19.5002 12 21 12C23.7614 12 26 9.76142 26 7C26 4.23858 23.7614 2 21 2ZM4 16C4 14.3431 5.34315 13 7 13C8.65685 13 10 14.3431 10 16C10 17.6569 8.65685 19 7 19C5.34315 19 4 17.6569 4 16ZM21 22C19.3431 22 18 23.3431 18 25C18 26.6569 19.3431 28 21 28C22.6569 28 24 26.6569 24 25C24 23.3431 22.6569 22 21 22Z"/></svg>