<svg viewBox="0 0 32 32" xmlns="http://www.w3.org/2000/svg"><path fill-rule="evenodd" d="M14.194 2.804c.723-1.522 2.889-1.522 3.612 0l3.305 6.952 7.616 1.007c1.665.22 2.333 2.272 1.117 3.43l-5.576 5.313 1.4 7.583c.305 1.655-1.446 2.924-2.924 2.119L16 25.534l-6.744 3.674c-1.478.805-3.229-.464-2.923-2.12l1.399-7.582-5.576-5.312c-1.216-1.16-.548-3.21 1.118-3.431l7.615-1.007 3.305-6.952zm5.111 7.81L16 3.662l-3.305 6.952a2 2 0 01-1.544 1.124l-7.615 1.008 5.575 5.312a2 2 0 01.588 1.81l-1.4 7.584 6.744-3.674a2 2 0 011.914 0l6.744 3.674-1.4-7.583a2 2 0 01.588-1.811l5.575-5.312-7.615-1.008a2 2 0 01-1.544-1.124z"/></svg>