<svg viewBox="0 0 32 32" xmlns="http://www.w3.org/2000/svg"><path fill-rule="evenodd" d="M17.13 1.379c-.453-.951-1.806-.951-2.259 0L10.89 9.755 1.72 10.968c-1.04.138-1.458 1.42-.698 2.145l6.71 6.393-1.684 9.13c-.191 1.035.903 1.828 1.827 1.325L16 25.534l8.126 4.427c.924.503 2.018-.29 1.827-1.325l-1.684-9.13 6.71-6.393c.76-.725.342-2.007-.699-2.144l-9.168-1.213-3.983-8.377zM16 3.663l3.48 7.32c.182.382.546.646.965.702l8.02 1.06-5.87 5.593a1.25 1.25 0 00-.367 1.131l1.473 7.983-7.103-3.87A1.249 1.249 0 0016 23.43V3.663z"/></svg>