<svg viewBox="0 0 32 32" xmlns="http://www.w3.org/2000/svg"><path fill-rule="evenodd" d="M17.806 2.804c-.723-1.522-2.889-1.522-3.612 0l-3.305 6.952-7.615 1.007c-1.666.22-2.334 2.272-1.118 3.43l5.576 5.313-1.4 7.583c-.305 1.655 1.446 2.924 2.924 2.119L16 25.534l6.744 3.674c1.478.805 3.229-.464 2.923-2.12l-1.399-7.582 5.576-5.312c1.216-1.16.548-3.21-1.117-3.431L21.11 9.756l-3.305-6.952zM16 3.662l3.305 6.952a2 2 0 001.544 1.124l7.615 1.008-5.575 5.312a2 2 0 00-.587 1.81l1.399 7.584-6.744-3.674a2 2 0 00-.957-.244V3.663z"/></svg>