<svg width="32" height="32" viewBox="0 0 32 32" fill="none" xmlns="http://www.w3.org/2000/svg">
<path fill-rule="evenodd" clip-rule="evenodd" d="M6 4C6 2.89543 6.89543 2 8 2H15.5858C16.1162 2 16.6249 2.21071 17 2.58579L27 12.5858C27.781 13.3668 27.781 14.6332 27 15.4142L25.7071 16.7071L24.2929 15.2929L25.5858 14L15.5858 4H8V6H6V4ZM4 10C4 8.89543 4.89543 8 6 8H13.5858C14.1162 8 14.6249 8.21071 15 8.58579L25 18.5858C25.781 19.3668 25.781 20.6332 25 21.4142L17.4142 29C16.6332 29.781 15.3668 29.781 14.5858 29L4.58579 19C4.21071 18.6249 4 18.1162 4 17.5858V10ZM13.5858 10H6V17.5858L16 27.5858L23.5858 20L13.5858 10ZM10.5 17C11.8807 17 13 15.8807 13 14.5C13 13.1193 11.8807 12 10.5 12C9.11929 12 8 13.1193 8 14.5C8 15.8807 9.11929 17 10.5 17Z" fill="black"/>
</svg>
