<svg width="32" height="32" viewBox="0 0 32 32" xmlns="http://www.w3.org/2000/svg">
    <path fill-rule="evenodd" d="M21 3H11V1h10v2zM7.31 8.724L1.793 3.207l1.414-1.414 27 27-1.414 1.414-4.517-4.517A11.96 11.96 0 0116 29C9.373 29 4 23.627 4 17a11.96 11.96 0 013.31-8.276zm1.415 1.415A9.966 9.966 0 006 17c0 5.523 4.477 10 10 10a9.965 9.965 0 006.861-2.725L8.725 10.14zM26 17a9.98 9.98 0 01-.625 3.489l1.529 1.53A11.956 11.956 0 0028 17c0-3.208-1.259-6.123-3.31-8.276l4.017-4.017-1.414-1.414-4.1 4.1A11.947 11.947 0 0016 5c-1.791 0-3.491.393-5.018 1.096l1.53 1.53A9.98 9.98 0 0116 7c5.523 0 10 4.477 10 10z"/>
</svg>
