<svg width="32" height="32" viewBox="0 0 32 32" xmlns="http://www.w3.org/2000/svg"><path fill-rule="evenodd" clip-rule="evenodd" d="M11 2.00003C9.89543 2.00003 9 2.89546 9 4.00003V6.00003L2 6.00003V8.00003H4.62711L7.4502 28.7027C7.55155 29.4459 8.18634 30 8.93645 30H23.0636C23.8137 30 24.4485 29.4459 24.5498 28.7027L27.3729 8.00003H30V6.00003L23 6.00003V4.00003C23 2.89546 22.1046 2.00003 21 2.00003H11ZM21 6.00003V4.00003H11V6.00003H21ZM6.64562 8.00003H25.3544L22.6271 28H9.37289L6.64562 8.00003ZM11.5041 12.0906L12.5041 23.0906L14.4959 22.9095L13.4959 11.9095L11.5041 12.0906ZM19.4959 23.0906L20.4959 12.0906L18.5041 11.9095L17.5041 22.9095L19.4959 23.0906Z"/></svg>