<svg width="32" height="32" viewBox="0 0 32 32" fill="none" xmlns="http://www.w3.org/2000/svg">
<path fill-rule="evenodd" clip-rule="evenodd" d="M14 6C9.58172 6 6 9.58172 6 14C6 18.4183 9.58172 22 14 22C18.4183 22 22 18.4183 22 14C22 9.58172 18.4183 6 14 6ZM4 14C4 8.47715 8.47715 4 14 4C19.5228 4 24 8.47715 24 14C24 16.4013 23.1536 18.6049 21.7429 20.3287L29.7071 28.2929L28.2929 29.7071L20.3287 21.7429C18.6049 23.1536 16.4013 24 14 24C8.47715 24 4 19.5228 4 14ZM9 15H19V13H9V15Z" fill="black"/>
</svg>
