<svg width="32" height="32" viewBox="0 0 32 32" fill="none" xmlns="http://www.w3.org/2000/svg">
<path fill-rule="evenodd" clip-rule="evenodd" d="M16 2C13.2386 2 11 4.23858 11 7V17C11 19.7614 13.2386 22 16 22C18.7614 22 21 19.7614 21 17V7C21 4.23858 18.7614 2 16 2ZM13 7C13 5.34315 14.3431 4 16 4C17.6569 4 19 5.34315 19 7V17C19 18.6569 17.6569 20 16 20C14.3431 20 13 18.6569 13 17V7ZM9 15V17C9 20.866 12.134 24 16 24C19.866 24 23 20.866 23 17V15H25V17C25 21.6326 21.5 25.4476 17 25.9451V28H22V30H10V28H15V25.9451C10.5 25.4476 7 21.6326 7 17V15H9Z" fill="black"/>
</svg>
