<svg width="32" height="32" viewBox="0 0 32 32" xmlns="http://www.w3.org/2000/svg"><path fill-rule="evenodd" clip-rule="evenodd" d="M2 8C2 6.89543 2.89543 6 4 6H21C22.1046 6 23 6.89543 23 8V12.0568L28.0235 8.46862C28.8508 7.87768 30 8.46907 30.0001 9.48578L30.0002 22.5142C30.0002 23.5309 28.851 24.1223 28.0237 23.5314L23 19.9432V24C23 25.1046 22.1046 26 21 26H4C2.89543 26 2 25.1046 2 24V8ZM21 8L4 8V24H21V18.4858C21 17.4691 22.1492 16.8777 22.9765 17.4686L28.0002 21.0568L28.0001 10.9432L22.9765 14.5314C22.1492 15.1223 21 14.5309 21 13.5142V8Z"/></svg>