<svg width="32" height="32" viewBox="0 0 32 32" xmlns="http://www.w3.org/2000/svg">
    <path fill-rule="evenodd" d="M24.682 7.318a4.5 4.5 0 00-6.364 0l-1.61 1.61-1.415-1.414 1.611-1.61a6.5 6.5 0 019.192 9.192l-4 4A6.48 6.48 0 0117.5 21a6.48 6.48 0 01-4.578-1.886l-.04-.04a6.496 6.496 0 01-1.173-1.62l-.014-.027 1.527-1.527a4.5 4.5 0 001.083 1.77l.013.012.015.015a4.501 4.501 0 006.35-.015l4-4a4.5 4.5 0 000-6.364zM14.5 11a6.48 6.48 0 00-4.596 1.904l-4 4a6.5 6.5 0 009.192 9.192l1.611-1.61-1.414-1.415-1.611 1.611a4.5 4.5 0 01-6.364-6.364l4-4a4.505 4.505 0 014.905-.976c.547.227 1.04.559 1.454.971l.005.005.009.009a4.5 4.5 0 011.087 1.774l1.527-1.528-.014-.028a6.493 6.493 0 00-1.178-1.624l-.035-.035A6.48 6.48 0 0014.5 11z"/>
</svg>
