<svg width="32" height="32" viewBox="0 0 32 32" fill="none" xmlns="http://www.w3.org/2000/svg">
<path fill-rule="evenodd" clip-rule="evenodd" d="M6 4C6 2.89543 6.89543 2 8 2H17.5858C18.1162 2 18.6249 2.21071 19 2.58579L25.4142 9C25.7893 9.37507 26 9.88378 26 10.4142V28C26 29.1046 25.1046 30 24 30H20V28H24V13.5V12V10.4L17.6 4H16H14V6H11V4H8V28V30C6.89543 30 6 29.1046 6 28V4ZM14 8V6H17V8H14ZM14 10H11V8H14V10ZM14 12V10H17V12H14ZM14 14H11V12H14V14ZM14 16V14H17V16H14ZM14 18H11V16H14V18ZM14 18H17V20H14V18ZM12 21C10.8954 21 10 21.8954 10 23V29V30H11H17H18V29V23C18 21.8954 17.1046 21 16 21H12ZM12 28V23H16V28H12Z" fill="black"/>
</svg>
