<svg width="32" height="32" viewBox="0 0 32 32" fill="none" xmlns="http://www.w3.org/2000/svg">
<path fill-rule="evenodd" clip-rule="evenodd" d="M4 4.00015C2.89542 4.00015 1.99999 4.89559 2 6.00017L2.00014 26C2.00015 27.1046 2.89557 28 4.00014 28L25.5858 28L24.2924 29.2934L25.7066 30.7076L30.7069 25.7074L31.414 25.0003L30.7069 24.2931L30.0001 23.5864V10.0002C30.0001 8.89561 29.1047 8.00018 28.0001 8.00018H15.4145L12.0002 4.58594C11.6252 4.21087 11.1165 4.00015 10.586 4.00015H4ZM27.5856 26.0002L25.5858 28H11.9997V26H4.00014L4 6.00015H10.586L14.0002 9.41439C14.3753 9.78947 14.884 10.0002 15.4145 10.0002H28.0001V17H29.9997V23.586L25.7066 19.2929L24.2924 20.7071L27.5855 24.0002H15.9995V26.0002H27.5856Z" fill="black"/>
</svg>
