<svg width="32" height="32" viewBox="0 0 32 32" fill="none" xmlns="http://www.w3.org/2000/svg">
<path fill-rule="evenodd" clip-rule="evenodd" d="M3.99951 4.00012C2.89494 4.00012 1.9995 4.89556 1.99951 6.00014L1.99965 26C1.99966 27.1046 2.89508 28 3.99965 28H14V26H3.99965L3.99951 6.00012H10.5855L13.9997 9.41436C14.3748 9.78944 14.8835 10.0002 15.414 10.0002H20V12H17V14H20V16H17V18H20V20H23V18H20V16H23V14H20V12H23V10.0002H27.9996V26H26V28H27.9996C29.1042 28 29.9996 27.1046 29.9996 26V10.0002C29.9996 8.89558 29.1042 8.00015 27.9996 8.00015H15.414L11.9998 4.58591C11.6247 4.21084 11.116 4.00012 10.5855 4.00012H3.99951ZM16 23C16 21.8954 16.8954 21 18 21H22C23.1046 21 24 21.8954 24 23V29V30H23H17H16V29V23ZM22 28V23H18V28H22Z" fill="black"/>
</svg>
