<svg width="32" height="32" viewBox="0 0 32 32" fill="none" xmlns="http://www.w3.org/2000/svg">
<path fill-rule="evenodd" clip-rule="evenodd" d="M1.99951 6.00014C1.9995 4.89556 2.89494 4.00012 3.99951 4.00012H10.5855C11.116 4.00012 11.6247 4.21084 11.9998 4.58591L15.414 8.00015H27.9996C29.1042 8.00015 29.9996 8.89558 29.9996 10.0002V26C29.9996 27.1046 29.1042 28 27.9996 28H3.99965C2.89508 28 1.99966 27.1046 1.99965 26L1.99951 6.00014ZM3.99951 6.00012V6.00012L3.99965 26L27.9996 26V10.0002H15.414C14.8835 10.0002 14.3748 9.78944 13.9997 9.41436L10.5855 6.00012H3.99951Z" fill="black"/>
</svg>
