<svg width="32" height="32" viewBox="0 0 32 32" fill="none" xmlns="http://www.w3.org/2000/svg">
<path fill-rule="evenodd" clip-rule="evenodd" d="M2 6.00014C1.99999 4.89556 2.89542 4.00012 4 4.00012H10.586C11.1165 4.00012 11.6252 4.21084 12.0002 4.58591L15.4145 8.00015H28.0001C29.1047 8.00015 30.0001 8.89558 30.0001 10.0002V16H28.0002V23H31.0002V25H28.0002V26L28.0001 26V25H26.0002V30H24.0002V25H19.0002V23H24.0002V18H26.0002V23H28.0001V10.0002H15.4145C14.884 10.0002 14.3753 9.78944 14.0002 9.41436L10.586 6.00012H4L4.00014 26H16.0002V28H4.00014C2.89557 28 2.00015 27.1046 2.00014 26L2 6.00014Z" fill="black"/>
</svg>
