<svg width="32" height="32" viewBox="0 0 32 32" fill="none" xmlns="http://www.w3.org/2000/svg">
<path fill-rule="evenodd" clip-rule="evenodd" d="M8.70745 5.29289L8.00034 4.58578L7.29324 5.29289L2.29299 10.2931L3.7072 11.7073L7.00034 8.41422L7.00034 15.9998H6.99985L6.99985 23.5858L3.70669 20.2926L2.29248 21.7069L7.29273 26.7071L7.99984 27.4142L8.70695 26.7071L13.7072 21.7069L12.293 20.2926L8.99985 23.5858L8.99985 16.0002H9.00034L9.00034 8.4142L12.2935 11.7073L13.7077 10.2931L8.70745 5.29289ZM16 8H30V6H16V8ZM26 14H16V12H26V14ZM16 20H30V18H16V20ZM16 26H26V24H16V26Z" fill="black"/>
</svg>
