<svg width="32" height="32" viewBox="0 0 32 32" fill="none" xmlns="http://www.w3.org/2000/svg">
<path fill-rule="evenodd" clip-rule="evenodd" d="M22.9142 4.5C22.1332 3.71895 20.8668 3.71895 20.0858 4.5L4.58579 20C4.21071 20.3751 4 20.8838 4 21.4142V26C4 27.1046 4.89543 28 6 28H10.5858C11.1162 28 11.6249 27.7893 12 27.4142L27.5 11.9142C28.281 11.1332 28.281 9.86684 27.5 9.08579L22.9142 4.5ZM17.9142 9.5L21.5 5.91422L26.0858 10.5L22.5 14.0858L17.9142 9.5ZM16.5 10.9142L6 21.4142L6 26H10.5858L21.0858 15.5L16.5 10.9142Z" fill="black"/>
</svg>
