<svg width="32" height="32" viewBox="0 0 32 32" fill="none" xmlns="http://www.w3.org/2000/svg">
<path fill-rule="evenodd" clip-rule="evenodd" d="M5 6C4.44772 6 4 6.44772 4 7V15C4 15.5523 4.44772 16 5 16H12V16.3636C12 20.0725 11.0434 21.8481 9.78315 22.7735C8.44583 23.7554 6.50106 24 4 24V26C6.49894 26 9.05417 25.79 10.9669 24.3856C12.9566 22.9246 14 20.3821 14 16.3636V15V7C14 6.44772 13.5523 6 13 6H5ZM28 16.3636V15V7C28 6.44772 27.5523 6 27 6H19C18.4477 6 18 6.44772 18 7V15C18 15.5523 18.4477 16 19 16H26V16.3636C26 20.0725 25.0434 21.8481 23.7831 22.7735C22.4458 23.7554 20.5011 24 18 24V26C20.4989 26 23.0542 25.79 24.9669 24.3856C26.9566 22.9246 28 20.3821 28 16.3636Z" fill="black"/>
</svg>
