<svg viewBox="0 0 32 32" xmlns="http://www.w3.org/2000/svg"><path fill-rule="evenodd" d="M16 5.7c-1.697 0-3.194.51-4.282 1.459C10.621 8.115 10 9.466 10 11c0 .765.155 1.438.485 2.033.328.589.791 1.036 1.309 1.406.28.2.588.385.91.561H4v2h12.83l.295.134c.202.092.396.18.579.265.65.302 1.178.57 1.604.863.418.287.701.574.886.898.182.318.306.736.306 1.34 0 1.042-.334 1.984-.96 2.656-.612.658-1.583 1.144-3.04 1.144-1.5 0-2.404-.391-3.036-.88-.65-.5-1.081-1.148-1.58-1.897l-.052-.078-1.664 1.11.092.138c.465.701 1.063 1.602 1.982 2.311 1.019.787 2.365 1.296 4.258 1.296 1.936 0 3.465-.664 4.505-1.781 1.026-1.103 1.495-2.56 1.495-4.019 0-.896-.189-1.666-.57-2.332A4.415 4.415 0 0020.949 17H28v-2H17.268c-.268-.124-.54-.254-.82-.394a68.808 68.808 0 00-1.335-.644c-.26-.124-.505-.24-.722-.345-.601-.293-1.07-.545-1.435-.806-.357-.255-.581-.495-.723-.75C12.095 11.812 12 11.485 12 11c0-.966.38-1.765 1.032-2.334C13.694 8.09 14.697 7.7 16 7.7c1.339 0 2.125.285 2.735.716.66.468 1.194 1.156 1.965 2.184l1.6-1.2-.023-.03c-.72-.961-1.433-1.911-2.387-2.586C18.875 6.065 17.661 5.7 16 5.7z"/></svg>