<svg viewBox="0 0 32 32" xmlns="http://www.w3.org/2000/svg"><path fill-rule="evenodd" d="M16.779 5.71c-1.693-.128-3.224.268-4.38 1.131-1.166.87-1.887 2.172-2.003 3.701-.058.762.045 1.445.33 2.063.282.613.71 1.094 1.198 1.501.385.321.826.613 1.29.894H4v2h12.68l.356.197.558.308c.626.35 1.132.657 1.535.981.394.318.655.626.815.963.157.331.25.757.204 1.36-.079 1.038-.483 1.952-1.158 2.575-.66.61-1.665 1.021-3.118.911-1.496-.113-2.368-.571-2.961-1.106-.61-.549-.991-1.227-1.432-2.011l-.046-.082-1.743.98.081.145c.411.735.94 1.678 1.802 2.454.957.862 2.26 1.471 4.148 1.614 1.93.147 3.505-.4 4.626-1.435 1.107-1.023 1.685-2.44 1.795-3.895.068-.893-.062-1.675-.391-2.368-.31-.65-.766-1.162-1.28-1.591H28v-2H17.2c-.213-.12-.428-.244-.648-.376-.44-.262-.88-.514-1.282-.742-.25-.143-.485-.277-.694-.399-.577-.338-1.025-.623-1.37-.912-.337-.281-.542-.538-.663-.802-.12-.259-.19-.592-.153-1.076.073-.964.511-1.73 1.205-2.249.704-.525 1.734-.838 3.033-.74 1.335.102 2.097.445 2.673.922.623.516 1.103 1.242 1.794 2.326l1.686-1.076-.02-.032c-.646-1.013-1.284-2.013-2.185-2.759-.958-.793-2.14-1.249-3.797-1.374z"/></svg>