<svg viewBox="0 0 32 32" xmlns="http://www.w3.org/2000/svg"><path fill-rule="evenodd" d="M13 2v4h-2V2h2zm-7 9H2v2h4v-2zm24 8h-4v2h4v-2zm-9 11v-4h-2v4h2zm6.293-1.293l-3.25-3.25 1.414-1.414 3.25 3.25-1.414 1.414zm-24-24l3.25 3.25 1.414-1.414-3.25-3.25-1.414 1.414zm21.535 2.465a4 4 0 00-5.656 0l-4.465 4.464-1.414-1.414 4.464-4.465a6 6 0 118.486 8.486l-4.536 4.535-1.414-1.414 4.535-4.536a4 4 0 000-5.656zm-17.656 12l4.535-4.536-1.414-1.414-4.536 4.535a6 6 0 108.486 8.486l4.464-4.465-1.414-1.414-4.465 4.464a4 4 0 11-5.656-5.656z"/></svg>