<svg viewBox="0 0 32 32" xmlns="http://www.w3.org/2000/svg"><path fill-rule="evenodd" d="M26.207 6.707L26.914 6l-.707-.707-5-5-1.414 1.414L23.086 5H15.5C8.596 5 3 10.596 3 17.5S8.596 30 15.5 30 28 24.404 28 17.5c0-1.602-.302-3.135-.852-4.546l-1.863.728c.461 1.182.715 2.47.715 3.818C26 23.299 21.299 28 15.5 28S5 23.299 5 17.5 9.7 7 15.5 7h7.586l-3.293 3.293 1.414 1.415 5-5zM10 19h3v2H9v2h4.5a1.5 1.5 0 001.5-1.5v-7a1.5 1.5 0 00-1.5-1.5H9v2h4v2h-3v2zm8 2v-6h2v6h-2zm-.5-8a1.5 1.5 0 00-1.5 1.5v7a1.5 1.5 0 001.5 1.5h3a1.5 1.5 0 001.5-1.5v-7a1.5 1.5 0 00-1.5-1.5h-3z"/></svg>