<svg width="32" height="32" viewBox="0 0 32 32" fill="none" xmlns="http://www.w3.org/2000/svg">
<path fill-rule="evenodd" clip-rule="evenodd" d="M26.9142 6.00025L26.2071 6.70736L21.2069 11.7076L19.7926 10.2934L23.0858 7.00024L15.4998 7.00024V7C9.70088 7.00013 5 11.7011 5 17.5C5 23.299 9.70101 28 15.5 28C21.299 28 26 23.299 26 17.5C26 16.1511 25.7462 14.864 25.2845 13.682L27.1475 12.9544C27.6982 14.3646 28 15.8982 28 17.5C28 24.4036 22.4036 30 15.5 30C8.59644 30 3 24.4036 3 17.5C3 10.5964 8.59644 5 15.5 5V5.00024L23.0858 5.00024L19.7926 1.7071L21.2069 0.292892L26.2071 5.29314L26.9142 6.00025ZM14.9998 23H8.99978V21H10.9998V16H8.99978V14H10.9998V13H12.9998V21H14.9998V23ZM17.0003 13H16.0003V14V17.5C16.0003 18.3284 16.6719 19 17.5003 19H20.0003V21H16.0003V23H20.5003C21.3287 23 22.0003 22.3284 22.0003 21.5V18.5C22.0003 17.6716 21.3287 17 20.5003 17H18.0003V15H22.0003V13H17.0003Z" fill="black"/>
</svg>
