<svg width="32" height="32" viewBox="0 0 32 32" xmlns="http://www.w3.org/2000/svg">
    <path fill-rule="evenodd" d="M26.208 6.707L26.915 6l-.707-.707-5-5-1.415 1.414L23.086 5h-7.585C8.597 5 3 10.596 3 17.5S8.596 30 15.5 30C22.404 30 28 24.404 28 17.5c0-1.602-.302-3.135-.853-4.546l-1.863.728A10.47 10.47 0 0126 17.5C26 23.299 21.3 28 15.5 28 9.701 28 5 23.299 5 17.5S9.701 7 15.5 7h7.586l-3.293 3.293 1.414 1.415 5-5zM14 13h-1v4.5a1.5 1.5 0 001.5 1.5H17v2h-4v2h4.5a1.5 1.5 0 001.5-1.5v-3a1.5 1.5 0 00-1.5-1.5H15v-2h4v-2h-5z"/>
</svg>
