<svg width="32" height="32" viewBox="0 0 32 32" fill="none" xmlns="http://www.w3.org/2000/svg">
<path fill-rule="evenodd" clip-rule="evenodd" d="M28.7065 7.70737L29.4136 7.00027L28.7065 6.29316L23.7062 1.29291L22.292 2.70712L25.5851 6.00026L13.9993 6.00026V6.00001H5.99927C4.8947 6.00001 3.99927 6.89544 3.99927 8.00001V17H5.99927V8.00001H13.9991V8.00026L25.5852 8.00026L22.292 11.2934L23.7062 12.7076L28.7065 7.70737ZM27.9993 24V17H25.9993V24H17.9999V23.9998H6.41386L9.70701 20.7066L8.2928 19.2924L3.29255 24.2927L2.58545 24.9998L3.29255 25.7069L8.2928 30.7071L9.70701 29.2929L6.41388 25.9998H15.9993V26H25.9993C27.1038 26 27.9993 25.1046 27.9993 24ZM13.0003 21H19.0003V19H17.0003V11H15.0003V12H13.0003V14H15.0003V19H13.0003V21Z" fill="black"/>
</svg>
