<svg width="32" height="32" viewBox="0 0 32 32" xmlns="http://www.w3.org/2000/svg"><path fill-rule="evenodd" clip-rule="evenodd" d="M29.4136 7.00027L28.7065 7.70737L23.7062 12.7076L22.292 11.2934L25.5852 8.00026L13.9991 8.00026V8.00001H5.99927V17H3.99927V8.00001C3.99927 6.89544 4.8947 6.00001 5.99927 6.00001H13.9993V6.00026L25.5851 6.00026L22.292 2.70712L23.7062 1.29291L28.7065 6.29316L29.4136 7.00027ZM27.9993 17V24C27.9993 25.1046 27.1038 26 25.9993 26H15.9993V25.9998H6.41388L9.70701 29.2929L8.2928 30.7071L3.29255 25.7069L2.58545 24.9998L3.29255 24.2927L8.2928 19.2924L9.70701 20.7066L6.41386 23.9998H17.9999V24H25.9993V17H27.9993Z"/></svg>