<svg viewBox="0 0 32 32" xmlns="http://www.w3.org/2000/svg"><path fill-rule="evenodd" d="M5.793 6.707L5.086 6l.707-.707 5-5 1.414 1.414L8.914 5H16.5C23.404 5 29 10.596 29 17.5S23.404 30 16.5 30 4 24.404 4 17.5c0-1.602.302-3.136.852-4.546l1.863.728A10.472 10.472 0 006 17.5C6 23.299 10.701 28 16.5 28S27 23.299 27 17.5 22.3 7 16.5 7H8.914l3.293 3.293-1.414 1.415-5-5zM11 19h3v2h-4v2h4.5a1.5 1.5 0 001.5-1.5v-7a1.5 1.5 0 00-1.5-1.5H10v2h4v2h-3v2zm8 2v-6h2v6h-2zm-.5-8a1.5 1.5 0 00-1.5 1.5v7a1.5 1.5 0 001.5 1.5h3a1.5 1.5 0 001.5-1.5v-7a1.5 1.5 0 00-1.5-1.5h-3z"/></svg>