<svg width="32" height="32" viewBox="0 0 32 32" xmlns="http://www.w3.org/2000/svg">
    <path fill-rule="evenodd" d="M5.793 6.707L5.086 6l.707-.707 5-5 1.415 1.414L8.915 5H16.5C23.404 5 29 10.597 29 17.5 29 24.404 23.404 30 16.5 30 9.598 30 4 24.404 4 17.5c0-1.602.302-3.135.853-4.546l1.863.728A10.471 10.471 0 006 17.5C6 23.299 10.701 28 16.5 28 22.3 28 27 23.299 27 17.5S22.3 7 16.5 7H8.916l3.293 3.293-1.414 1.415-5-5zM15 13h-1v4.5a1.5 1.5 0 001.5 1.5H18v2h-4v2h4.5a1.5 1.5 0 001.5-1.5v-3a1.5 1.5 0 00-1.5-1.5H16v-2h4v-2h-5z"/>
</svg>
