<svg width="32" height="32" viewBox="0 0 32 32" fill="none" xmlns="http://www.w3.org/2000/svg">
<path fill-rule="evenodd" clip-rule="evenodd" d="M5.08579 6.00024L5.79289 6.70734L10.7931 11.7076L12.2074 10.2934L8.9142 7.00023L16.5002 7.00023V6.99998C22.2991 7.00012 27 11.7011 27 17.5C27 23.299 22.299 28 16.5 28C10.701 28 6 23.299 6 17.5C6 16.1511 6.25384 14.864 6.71545 13.6819L4.85248 12.9544C4.30177 14.3645 4 15.8982 4 17.5C4 24.4035 9.59644 30 16.5 30C23.4036 30 29 24.4035 29 17.5C29 10.5964 23.4036 4.99998 16.5 4.99998V5.00023L8.91422 5.00023L12.2074 1.70709L10.7931 0.292877L5.79289 5.29313L5.08579 6.00024ZM16 23H10V21H12V16H10V14H12V13H14V21H16V23ZM18 13L17 14V18L18 19H21V21H17V23H22L23 22V18L22 17H19V15H23V13H18Z" fill="black"/>
</svg>
