<svg width="32" height="32" viewBox="0 0 32 32" fill="none" xmlns="http://www.w3.org/2000/svg">
<path fill-rule="evenodd" clip-rule="evenodd" d="M5.79338 6.70734L5.08628 6.00024L5.79338 5.29313L10.7936 0.292877L12.2078 1.70709L8.91471 5.00023L16.5005 5.00023V4.99998C23.404 4.99998 29.0005 10.5964 29.0005 17.5C29.0005 24.4035 23.404 30 16.5005 30C9.59693 30 4.00049 24.4035 4.00049 17.5C4.00049 15.8982 4.30226 14.3645 4.85297 12.9544L6.71594 13.6819C6.25433 14.864 6.00049 16.1511 6.00049 17.5C6.00049 23.299 10.7015 28 16.5005 28C22.2995 28 27.0005 23.299 27.0005 17.5C27.0005 11.7011 22.2996 7.00012 16.5007 6.99998V7.00023L8.91469 7.00023L12.2078 10.2934L10.7936 11.7076L5.79338 6.70734ZM15.0004 13H14.0004V14V17.5C14.0004 18.3284 14.672 19 15.5004 19H18.0004V21H14.0004V23H18.5004C19.3289 23 20.0004 22.3284 20.0004 21.5V18.5C20.0004 17.6716 19.3289 17 18.5004 17H16.0004V15H20.0004V13H15.0004Z" fill="black"/>
</svg>
