<svg width="32" height="32" viewBox="0 0 32 32" xmlns="http://www.w3.org/2000/svg"><path fill-rule="evenodd" clip-rule="evenodd" d="M5.79289 6.70734L5.08579 6.00024L5.79289 5.29313L10.7931 0.292877L12.2074 1.70709L8.91422 5.00023L16.5 5.00023V4.99998C23.4036 4.99998 29 10.5964 29 17.5C29 24.4035 23.4036 30 16.5 30C9.59644 30 4 24.4035 4 17.5C4 15.8982 4.30177 14.3645 4.85248 12.9544L6.71545 13.6819C6.25384 14.864 6 16.1511 6 17.5C6 23.299 10.701 28 16.5 28C22.299 28 27 23.299 27 17.5C27 11.7011 22.2991 7.00012 16.5002 6.99998V7.00023L8.9142 7.00023L12.2074 10.2934L10.7931 11.7076L5.79289 6.70734ZM11 19H14V21H10V23H15L16 22V14L15 13H10V15H14V17H11V19ZM18 13L17 14V22L18 23H22L23 22V14L22 13H18ZM19 21V15H21V21H19Z"/></svg>