<svg viewBox="0 0 32 32" xmlns="http://www.w3.org/2000/svg"><path fill-rule="evenodd" d="M5.086 6l.707.707 5 5 1.414-1.414L8.914 7H16.5C22.3 7 27 11.701 27 17.5S22.299 28 16.5 28 6 23.299 6 17.5c0-1.349.254-2.636.715-3.818l-1.863-.728A12.47 12.47 0 004 17.5C4 24.404 9.596 30 16.5 30S29 24.404 29 17.5 23.404 5 16.5 5H8.914l3.293-3.293L10.793.293l-5 5L5.086 6zM16 23h-6v-2h2v-5h-2v-2h2v-1h2v8h2v2zm2-10h-1v4.5a1.5 1.5 0 001.5 1.5H21v2h-4v2h4.5a1.5 1.5 0 001.5-1.5v-3a1.5 1.5 0 00-1.5-1.5H19v-2h4v-2h-5z"/></svg>