<svg width="32" height="32" viewBox="0 0 32 32" xmlns="http://www.w3.org/2000/svg"><path fill-rule="evenodd" clip-rule="evenodd" d="M28.7073 8.7074L29.4144 8.0003L28.7073 7.29319L23.707 2.29294L22.2928 3.70715L25.586 7.00029L22 7.00029V7.00001L19.5774 7.00001C18.8628 7.00001 18.2026 7.38121 17.8453 8.00001L9.18505 23H2V25H9.18505C9.89958 25 10.5598 24.6188 10.9171 24L19.5774 9.00001L21.9999 9.00001V9.00029L25.586 9.00029L22.2928 12.2934L23.707 13.7077L28.7073 8.7074ZM22.2928 28.2934L25.586 25.0003H21.9999V25H19.5774C18.8628 25 18.2026 24.6188 17.8453 24L16.2651 21.2631L17.4198 19.2631L19.5774 23H22V23.0003H25.586L22.2928 19.7071L23.707 18.2929L28.7073 23.2932L29.4144 24.0003L28.7073 24.7074L23.707 29.7076L22.2928 28.2934ZM2 7.00002H9.18505C9.89958 7.00002 10.5598 7.38122 10.9171 8.00002L12.4972 10.7369L11.3425 12.7369L9.18505 9.00002H2V7.00002Z"/></svg>