<svg viewBox="0 0 32 32" xmlns="http://www.w3.org/2000/svg"><path fill-rule="evenodd" d="M15.867 3.72c.787-.788 2.134-.23 2.134.884v22.793c0 1.113-1.346 1.67-2.134.883L9.587 22H4a2 2 0 01-2-2v-8a2 2 0 012-2h5.586l6.28-6.28zm.134 2.694l-5 5A2 2 0 019.587 12H4v8h5.586a2 2 0 011.414.586l5 5V6.414zm10.886 1.653A11.629 11.629 0 0130 16c0 3.063-1.182 5.852-3.113 7.933l-1.466-1.36A9.629 9.629 0 0028 16a9.629 9.629 0 00-2.579-6.573l1.466-1.36zM25 16a7.643 7.643 0 00-1.988-5.151l-1.481 1.344A5.643 5.643 0 0123 16c0 1.466-.556 2.8-1.47 3.807l1.48 1.345A7.643 7.643 0 0025 16z"/></svg>