<svg width="32" height="32" viewBox="0 0 32 32" xmlns="http://www.w3.org/2000/svg">
    <path fill-rule="evenodd" d="M15.867 3.72c.787-.788 2.133-.23 2.133.884v22.793c0 1.113-1.346 1.67-2.133.883L9.587 22H4a2 2 0 01-2-2v-8a2 2 0 012-2h5.586l6.28-6.28zM16 6.414l-5 5A2 2 0 019.587 12H4v8h5.586a2 2 0 011.415.586l5 5V6.414zm10.887 1.653A11.629 11.629 0 0129.999 16c0 3.063-1.182 5.852-3.112 7.933l-1.466-1.36A9.629 9.629 0 0027.999 16a9.629 9.629 0 00-2.578-6.573l1.466-1.36zM24.999 16a7.643 7.643 0 00-1.988-5.151l-1.481 1.344A5.642 5.642 0 0123 16c0 1.466-.556 2.8-1.47 3.807l1.48 1.345A7.642 7.642 0 0025 16z"/>
</svg>
