<svg viewBox="0 0 32 32" xmlns="http://www.w3.org/2000/svg"><path fill-rule="evenodd" d="M16.001 6.414l-5.293 5.293-.293.293H4.001v8h6.414l.293.293 5.293 5.293V6.414zM9.587 10l6.707-6.707L18 4v24l-1.707.707L9.587 22H2V10h7.586zm17.3-1.933A11.629 11.629 0 0130 16c0 3.063-1.182 5.852-3.113 7.933l-1.466-1.36A9.63 9.63 0 0028 16a9.63 9.63 0 00-2.579-6.573l1.466-1.36zM25 16a7.642 7.642 0 00-1.989-5.151l-1.48 1.344A5.643 5.643 0 0123 16c0 1.466-.556 2.8-1.47 3.807l1.481 1.345A7.643 7.643 0 0025 16z"/></svg>