<svg viewBox="0 0 24 24" xmlns="http://www.w3.org/2000/svg"><path fill-rule="evenodd" d="M17.625 3a1.875 1.875 0 100 3.75 1.875 1.875 0 000-3.75zM14.25 4.875a3.375 3.375 0 114.125 3.291v2.644l-.22.22-2.25 2.25-.22.22H8.562l-1.436 1.436v.898a3.376 3.376 0 01-.75 6.666 3.375 3.375 0 01-.75-6.666V8.166a3.376 3.376 0 01.75-6.666 3.375 3.375 0 01.75 6.666v4.648l.595-.594.22-.22h7.124l1.811-1.81V8.165a3.376 3.376 0 01-2.625-3.291zM6.375 6.75a1.875 1.875 0 100-3.75 1.875 1.875 0 000 3.75zM4.5 19.125a1.875 1.875 0 113.75 0 1.875 1.875 0 01-3.75 0z"/></svg>