<svg viewBox="0 0 32 32" xmlns="http://www.w3.org/2000/svg"><path fill-rule="evenodd" d="M24.5 21.111V9.415L22.086 7h-4.672l2.793 2.793-1.414 1.414-4.5-4.5L13.586 6l.707-.707 4.5-4.5 1.414 1.414L17.414 5h5.5l.293.293 3 3 .293.293V21.11a4.502 4.502 0 01-1 8.889 4.5 4.5 0 01-1-8.889zm1 1.889a2.5 2.5 0 100 5 2.5 2.5 0 000-5zm-20-12.111A4.502 4.502 0 016.5 2a4.5 4.5 0 011 8.889v11.697L9.914 25h4.672l-2.793-2.793 1.414-1.414 4.5 4.5.707.707-.707.707-4.5 4.5-1.414-1.414L14.586 27h-5.5l-.293-.293-3-3-.293-.293V10.89zM6.5 9a2.5 2.5 0 100-5 2.5 2.5 0 000 5z"/></svg>