<svg viewBox="0 0 24 24" xmlns="http://www.w3.org/2000/svg"><path fill-rule="evenodd" d="M10.22 4.22l-.53.53.53.53 3 3 1.06-1.06-1.72-1.72h4.88L19 7.06V8h1.5V6.44l-.22-.22-2-2-.22-.22h-5.5l1.72-1.72-1.06-1.06-3 3zM6 4.75a1.75 1.75 0 11-3.5 0 1.75 1.75 0 013.5 0zm1.5 0A3.251 3.251 0 015 7.913v9.027l1.56 1.56h4.88l-1.72-1.72 1.06-1.06 3 3 .53.53-.53.53-3 3-1.06-1.06L11.44 20h-5.5l-.22-.22-2-2-.22-.22V7.914A3.251 3.251 0 014.25 1.5 3.25 3.25 0 017.5 4.75zm13 11.337V8H19v8.087a3.251 3.251 0 101.5 0zm1 3.163a1.75 1.75 0 11-3.5 0 1.75 1.75 0 013.5 0z"/></svg>