<svg viewBox="0 0 24 24" xmlns="http://www.w3.org/2000/svg"><path fill-rule="evenodd" d="M18.375 15.834V7.06l-1.81-1.811H13.06l2.094 2.095-1.06 1.06L10.72 5.03l-.53-.53.53-.53L14.095.595l1.06 1.06-2.094 2.095h4.124l.22.22 2.25 2.25.22.22v9.394a3.376 3.376 0 01-.75 6.666 3.375 3.375 0 01-.75-6.666zm.75 1.416a1.875 1.875 0 100 3.75 1.875 1.875 0 000-3.75zm-15-9.084a3.376 3.376 0 01.75-6.666 3.375 3.375 0 01.75 6.666v8.773l1.81 1.811h3.504l-2.094-2.095 1.06-1.06 3.375 3.375.53.53-.53.53-3.375 3.375-1.06-1.06 2.094-2.095H6.815l-.22-.22-2.25-2.25-.22-.22V8.167zm.75-1.416a1.875 1.875 0 100-3.75 1.875 1.875 0 000 3.75z"/></svg>