<svg viewBox="0 0 24 24" xmlns="http://www.w3.org/2000/svg"><path fill-rule="evenodd" d="M4.5 4.875a1.875 1.875 0 113.75 0 1.875 1.875 0 01-3.75 0zM6.375 1.5a3.375 3.375 0 00-.75 6.666v2.644l.22.22 1.5 1.5.22.22h3.685v3.084A3.376 3.376 0 0012 22.5a3.375 3.375 0 00.75-6.666V12.75h3.685l.22-.22 1.5-1.5.22-.22V8.167a3.376 3.376 0 00-.75-6.666 3.375 3.375 0 00-.75 6.666v2.023l-1.06 1.061h-7.63l-1.06-1.06V8.165a3.376 3.376 0 00-.75-6.666zM17.625 3a1.875 1.875 0 100 3.75 1.875 1.875 0 000-3.75zM12 17.25A1.875 1.875 0 1012 21a1.875 1.875 0 000-3.75z"/></svg>