<svg width="32" height="32" viewBox="0 0 32 32" fill="none" xmlns="http://www.w3.org/2000/svg">
<path fill-rule="evenodd" clip-rule="evenodd" d="M5.99951 6.50002C5.99951 5.1193 7.1188 4.00002 8.49951 4.00002C9.88022 4.00002 10.9995 5.1193 10.9995 6.50002C10.9995 7.88073 9.88022 9.00002 8.49951 9.00002C7.1188 9.00002 5.99951 7.88073 5.99951 6.50002ZM9.49951 10.8885C11.5035 10.4338 12.9995 8.6416 12.9995 6.50002C12.9995 4.01473 10.9848 2.00002 8.49951 2.00002C6.01423 2.00002 3.99951 4.01473 3.99951 6.50002C3.99951 8.6416 5.49552 10.4338 7.49951 10.8885V21.1115C5.49552 21.5663 3.99951 23.3584 3.99951 25.5C3.99951 27.9853 6.01423 30 8.49951 30C10.9848 30 12.9995 27.9853 12.9995 25.5C12.9995 23.3584 11.5035 21.5663 9.49951 21.1115V17.0001C10.3352 17.628 11.3741 18 12.4999 18H19.2556C19.8733 19.7478 21.5402 21 23.4995 21C25.9848 21 27.9995 18.9853 27.9995 16.5C27.9995 14.0147 25.9848 12 23.4995 12C21.1832 12 19.2757 13.75 19.027 16H12.4999C10.8429 16 9.49974 14.6567 9.4999 12.9997L9.5 12.0001H9.49951V10.8885ZM5.99951 25.5C5.99951 24.1193 7.1188 23 8.49951 23C9.88022 23 10.9995 24.1193 10.9995 25.5C10.9995 26.8807 9.88022 28 8.49951 28C7.1188 28 5.99951 26.8807 5.99951 25.5ZM20.9995 16.5C20.9995 15.1193 22.1188 14 23.4995 14C24.8802 14 25.9995 15.1193 25.9995 16.5C25.9995 17.8807 24.8802 19 23.4995 19C22.1188 19 20.9995 17.8807 20.9995 16.5Z" fill="black"/>
</svg>
