<svg viewBox="0 0 24 24" xmlns="http://www.w3.org/2000/svg"><path fill-rule="evenodd" d="M4.5 4.875a1.875 1.875 0 113.75 0 1.875 1.875 0 01-3.75 0zm2.625 3.291a3.376 3.376 0 00-.75-6.666 3.375 3.375 0 00-.75 6.666v7.668a3.376 3.376 0 00.75 6.666 3.375 3.375 0 00.75-6.666v-3.898L8.47 13.28l.22.22h5.752A3.377 3.377 0 0021 12.375 3.375 3.375 0 0014.27 12H9.31L7.126 9.814V8.166zM4.5 19.125a1.875 1.875 0 113.75 0 1.875 1.875 0 01-3.75 0zm11.25-6.75a1.875 1.875 0 113.75 0 1.875 1.875 0 01-3.75 0z"/></svg>