<svg viewBox="0 0 24 24" xmlns="http://www.w3.org/2000/svg"><path fill-rule="evenodd" d="M9.19 4.75l.53-.53 3-3 1.06 1.06L12.06 4h5.5l.22.22 2 2 .22.22V8h-1.5v-.94L16.94 5.5h-4.88l1.72 1.72-1.06 1.06-3-3-.53-.53zM20 8v8.087a3.251 3.251 0 11-1.5 0V8H20zm-.75 13a1.75 1.75 0 100-3.5 1.75 1.75 0 000 3.5zM6.5 19.25a1.75 1.75 0 11-3.5 0 1.75 1.75 0 013.5 0zm1.5 0a3.25 3.25 0 11-4-3.163V7.913A3.251 3.251 0 014.75 1.5a3.25 3.25 0 01.75 6.413v8.174A3.251 3.251 0 018 19.25zM6.5 4.75a1.75 1.75 0 11-3.5 0 1.75 1.75 0 013.5 0z"/></svg>