<svg viewBox="0 0 24 24" xmlns="http://www.w3.org/2000/svg"><path fill-rule="evenodd" d="M18.375 7.06v8.774a3.376 3.376 0 00.75 6.666 3.375 3.375 0 00.75-6.666V6.44l-.22-.22-2.25-2.25-.22-.22h-4.124l2.094-2.095-1.06-1.06L10.72 3.97l-.53.53.53.53 3.375 3.375 1.06-1.06-2.094-2.095h3.503l1.811 1.81zM17.25 19.126a1.875 1.875 0 113.75 0 1.875 1.875 0 01-3.75 0zm-14.25 0a1.875 1.875 0 113.75 0 1.875 1.875 0 01-3.75 0zm-1.5 0a3.376 3.376 0 012.625-3.291V8.166a3.376 3.376 0 01.75-6.666 3.375 3.375 0 01.75 6.666v7.668a3.376 3.376 0 01-.75 6.666A3.375 3.375 0 011.5 19.125zM4.875 6.75a1.875 1.875 0 110-3.75 1.875 1.875 0 010 3.75z"/></svg>