<svg viewBox="0 0 32 32" xmlns="http://www.w3.org/2000/svg"><path fill-rule="evenodd" d="M24.5 9.414v11.697a4.502 4.502 0 001 8.889 4.5 4.5 0 001-8.889V8.586l-.292-.293-3-3L22.915 5h-5.5l2.793-2.793L18.793.793l-4.5 4.5-.707.707.707.707 4.5 4.5 1.415-1.414L17.415 7h4.671l2.415 2.414zM23 25.5a2.5 2.5 0 115 0 2.5 2.5 0 01-5 0zm-19 0A2.5 2.5 0 016.497 23h.007A2.5 2.5 0 114 25.5zm-2 0a4.502 4.502 0 013.5-4.389V10.888A4.502 4.502 0 016.5 2a4.5 4.5 0 011 8.889v10.223A4.502 4.502 0 016.5 30 4.5 4.5 0 012 25.5zM6.5 9a2.5 2.5 0 100-5 2.5 2.5 0 000 5z"/></svg>