<svg viewBox="0 0 24 24" xmlns="http://www.w3.org/2000/svg"><path fill-rule="evenodd" d="M5.5 0C4.484 0 3.584.293 2.938.938 2.293 1.584 2 2.484 2 3.5v15c0 .863.215 1.75.81 2.431C3.423 21.63 4.337 22 5.5 22H16v-1.5H5.5c-.836 0-1.297-.255-1.56-.556-.28-.32-.44-.807-.44-1.444 0-.637.16-1.124.44-1.444.263-.301.724-.556 1.56-.556h7V15h-7c-.786 0-1.458.169-2 .493V3.5c0-.734.207-1.209.5-1.5.291-.293.766-.5 1.5-.5h13v7H20V0H5.5zM20 13.084l2.89 2.942 1.07-1.052-4.175-4.25-.53-.54-.535.536-4.25 4.25 1.06 1.06 2.97-2.97V24H20V13.084z"/></svg>