<svg viewBox="0 0 24 24" xmlns="http://www.w3.org/2000/svg"><path fill-rule="evenodd" d="M4.531 4.875A2.25 2.25 0 016.75 3h.375V1.5H6.75a3.75 3.75 0 00-3.731 3.375H4.53zM4.5 7.125H3v3.75h1.5v-3.75zm0 6H3v5.625a3.751 3.751 0 003 3.675v-1.553a2.251 2.251 0 01.75-4.372h.375V15H6.75c-.844 0-1.623.279-2.25.75v-2.625zM9.375 15v1.5h3.75V15h-3.75zm6 0v1.5H18V21h-3.75v1.5h5.25v-9.375H18V15h-2.625zM18 10.875h1.5v-3.75H18v3.75zm0-6h1.5V1.5h-4.125V3H18v1.875zM13.125 3V1.5h-3.75V3h3.75zM13 18H7.5v6l2.75-1.5L13 24v-6z"/></svg>