<svg width="32" height="32" viewBox="0 0 32 32" fill="none" xmlns="http://www.w3.org/2000/svg">
<path fill-rule="evenodd" clip-rule="evenodd" d="M4 7.00002C4 4.23859 6.23858 2.00002 9 2.00002H24C25.1046 2.00002 26 2.89544 26 4.00002V12H24V4.00002H9C7.34315 4.00002 6 5.34316 6 7.00002V20.9996C6.83566 20.372 7.87439 20 9 20H15.9999V22H9C7.34315 22 6 23.3432 6 25C6 26.6569 7.34315 28 9 28H20.9999V30H9C6.23858 30 4 27.7614 4 25V7.00002ZM26.0002 18.4142L29.2933 21.7074L30.7075 20.2931L25.7073 15.2929L25.0002 14.5858L24.2931 15.2929L19.2928 20.2931L20.707 21.7074L24.0002 18.4142V32.0002H26.0002V18.4142Z" fill="black"/>
</svg>
